<?xml version="1.0" standalone="no"?>
<!DOCTYPE svg PUBLIC "-//W3C//DTD SVG 20010904//EN"
 "http://www.w3.org/TR/2001/REC-SVG-20010904/DTD/svg10.dtd">
<svg version="1.0" xmlns="http://www.w3.org/2000/svg"
 width="864.000000pt" height="864.000000pt" viewBox="0 0 864.000000 864.000000"
 preserveAspectRatio="xMidYMid meet">

<g transform="translate(0.000000,864.000000) scale(0.100000,-0.100000)"
fill="#000000" stroke="none">
<path d="M4035 8629 c-1138 -76 -2206 -602 -2958 -1459 -506 -576 -842 -1257
-991 -2010 -131 -659 -107 -1341 69 -1980 361 -1310 1308 -2368 2570 -2873
768 -306 1617 -384 2435 -221 825 164 1560 549 2164 1134 634 614 1058 1392
1230 2260 112 566 112 1114 0 1680 -120 606 -354 1149 -715 1664 -7 9 -282
-168 -484 -312 -1211 -865 -2268 -1914 -3240 -3216 -438 -588 -912 -1315
-1230 -1891 -49 -88 -89 -161 -91 -163 -2 -3 -1397 159 -1402 163 -1 1 -16
103 -33 226 -170 1263 -440 2315 -863 3359 l-34 85 31 11 c184 67 1033 364
1038 364 8 0 120 -333 193 -575 212 -705 373 -1453 491 -2280 20 -137 37 -250
38 -251 1 -1 11 -4 23 -8 18 -6 31 12 109 146 257 447 691 1103 1085 1638 977
1328 2162 2552 3294 3405 115 86 215 159 223 162 7 3 13 9 13 13 0 9 -174 139
-290 217 -775 518 -1738 775 -2675 712z"/>
</g>
</svg>
